STARTFONT 2.1
FONT -DEC-Terminal-Medium-R-Narrow--28-280-75-75-C-120-iso8859-5
SIZE 28 75 75
FONTBOUNDINGBOX 12 30 0 -6

STARTPROPERTIES 24
FOUNDRY "Monotype"
FAMILY_NAME "VT"
WEIGHT_NAME "Regular"
SLANT "R"
SETWIDTH_NAME "Narrow"
ADD_STYLE_NAME ""
PIXEL_SIZE 28
POINT_SIZE 280
RESOLUTION_X 75
RESOLUTION_Y 75
SPACING "C"
AVERAGE_WIDTH 120
CHARSET_REGISTRY "iso8859"
CHARSET_ENCODING "5"
FACE_NAME "VT Narrow ISO Latin Cyrillic"
_DEC_DEVICE_FONTNAMES "PS=vt-narrow-isolatincyrillic"
COPYRIGHT "Copyright (c) 1993 Monotype Typography Ltd."
CAP_HEIGHT 17
X_HEIGHT 12
WEIGHT 10
QUAD_WIDTH 12
DEFAULT_CHAR 160
FONT_DESCENT 6
FONT_ASCENT 24
ENDPROPERTIES

CHARS 191

STARTCHAR space
ENCODING 32
SWIDTH 361 0
DWIDTH 12 0
BBX 12 30 0 -6
BITMAP
0000
0000
0000
0000
0000
0000
0000
0000
0000
0000
0000
0000
0000
0000
0000
0000
0000
0000
0000
0000
0000
0000
0000
0000
0000
0000
0000
0000
0000
0000
ENDCHAR

STARTCHAR exclam
ENCODING 33
SWIDTH 361 0
DWIDTH 12 0
BBX 12 30 0 -6
BITMAP
0000
0000
0000
0000
0000
0000
0000
0000
0600
0600
0600
0600
0600
0600
0600
0600
0600
0600
0600
0000
0000
0600
0600
0600
0000
0000
0000
0000
0000
0000
ENDCHAR

STARTCHAR quotedbl
ENCODING 34
SWIDTH 361 0
DWIDTH 12 0
BBX 12 30 0 -6
BITMAP
0000
0000
0000
0000
0000
0000
1980
1980
1980
1980
1980
1980
0000
0000
0000
0000
0000
0000
0000
0000
0000
0000
0000
0000
0000
0000
0000
0000
0000
0000
ENDCHAR

STARTCHAR numbersign
ENCODING 35
SWIDTH 361 0
DWIDTH 12 0
BBX 12 30 0 -6
BITMAP
0000
0000
0000
0000
0000
0000
0000
0000
1980
1980
1980
1980
7FE0
7FE0
1980
1980
7FE0
7FE0
1980
1980
1980
1980
0000
0000
0000
0000
0000
0000
0000
0000
ENDCHAR

STARTCHAR dollar
ENCODING 36
SWIDTH 361 0
DWIDTH 12 0
BBX 12 30 0 -6
BITMAP
0000
0000
0000
0000
0000
0000
0000
0000
0600
0600
1F80
3FC0
76E0
6660
7600
3F80
1FC0
06E0
6660
76E0
3FC0
1F80
0600
0600
0000
0000
0000
0000
0000
0000
ENDCHAR

STARTCHAR percent
ENCODING 37
SWIDTH 361 0
DWIDTH 12 0
BBX 12 30 0 -6
BITMAP
0000
0000
0000
0000
0000
0000
0000
0000
1800
3C00
6630
6670
3CE0
19C0
0380
0700
0E00
1C00
3980
73C0
6660
0660
03C0
0180
0000
0000
0000
0000
0000
0000
ENDCHAR

STARTCHAR ampersand
ENCODING 38
SWIDTH 361 0
DWIDTH 12 0
BBX 12 30 0 -6
BITMAP
0000
0000
0000
0000
0000
0000
0000
0000
0E00
1F00
3B80
3180
3180
3B80
1F00
1C00
3E00
7760
63E0
61C0
61C0
73E0
3F60
1E60
0000
0000
0000
0000
0000
0000
ENDCHAR

STARTCHAR quoteright
ENCODING 39
SWIDTH 361 0
DWIDTH 12 0
BBX 12 30 0 -6
BITMAP
0000
0000
0000
0000
0000
0000
0600
0600
0600
0C00
0800
0000
0000
0000
0000
0000
0000
0000
0000
0000
0000
0000
0000
0000
0000
0000
0000
0000
0000
0000
ENDCHAR

STARTCHAR parenleft
ENCODING 40
SWIDTH 361 0
DWIDTH 12 0
BBX 12 30 0 -6
BITMAP
0000
0000
0000
0000
0000
0000
0180
0300
0600
0600
0C00
0C00
1800
1800
1800
1800
1800
1800
1800
1800
0C00
0C00
0600
0600
0300
0180
0000
0000
0000
0000
ENDCHAR

STARTCHAR parenright
ENCODING 41
SWIDTH 361 0
DWIDTH 12 0
BBX 12 30 0 -6
BITMAP
0000
0000
0000
0000
0000
0000
1800
0C00
0600
0600
0300
0300
0180
0180
0180
0180
0180
0180
0180
0180
0300
0300
0600
0600
0C00
1800
0000
0000
0000
0000
ENDCHAR

STARTCHAR asterisk
ENCODING 42
SWIDTH 361 0
DWIDTH 12 0
BBX 12 30 0 -6
BITMAP
0000
0000
0000
0000
0000
0000
0000
0000
0600
0600
36C0
3FC0
1F80
1F80
3FC0
36C0
0600
0600
0000
0000
0000
0000
0000
0000
0000
0000
0000
0000
0000
0000
ENDCHAR

STARTCHAR plus
ENCODING 43
SWIDTH 361 0
DWIDTH 12 0
BBX 12 30 0 -6
BITMAP
0000
0000
0000
0000
0000
0000
0000
0000
0000
0000
0000
0600
0600
0600
0600
7FE0
7FE0
0600
0600
0600
0600
0000
0000
0000
0000
0000
0000
0000
0000
0000
ENDCHAR

STARTCHAR comma
ENCODING 44
SWIDTH 361 0
DWIDTH 12 0
BBX 12 30 0 -6
BITMAP
0000
0000
0000
0000
0000
0000
0000
0000
0000
0000
0000
0000
0000
0000
0000
0000
0000
0000
0000
0000
0000
0600
0600
0600
0C00
0800
0000
0000
0000
0000
ENDCHAR

STARTCHAR minus
ENCODING 45
SWIDTH 361 0
DWIDTH 12 0
BBX 12 30 0 -6
BITMAP
0000
0000
0000
0000
0000
0000
0000
0000
0000
0000
0000
0000
0000
0000
0000
7FE0
7FE0
0000
0000
0000
0000
0000
0000
0000
0000
0000
0000
0000
0000
0000
ENDCHAR

STARTCHAR period
ENCODING 46
SWIDTH 361 0
DWIDTH 12 0
BBX 12 30 0 -6
BITMAP
0000
0000
0000
0000
0000
0000
0000
0000
0000
0000
0000
0000
0000
0000
0000
0000
0000
0000
0000
0000
0000
0C00
0C00
0C00
0000
0000
0000
0000
0000
0000
ENDCHAR

STARTCHAR slash
ENCODING 47
SWIDTH 361 0
DWIDTH 12 0
BBX 12 30 0 -6
BITMAP
0000
0000
0000
0000
0000
0000
0000
0000
00C0
00C0
0180
0180
0300
0300
0600
0600
0C00
0C00
1800
1800
3000
3000
6000
6000
0000
0000
0000
0000
0000
0000
ENDCHAR

STARTCHAR zero
ENCODING 48
SWIDTH 361 0
DWIDTH 12 0
BBX 12 30 0 -6
BITMAP
0000
0000
0000
0000
0000
0000
0000
0000
0F00
1F80
30C0
30C0
6060
6060
6060
6060
6060
6060
6060
6060
30C0
30C0
1F80
0F00
0000
0000
0000
0000
0000
0000
ENDCHAR

STARTCHAR one
ENCODING 49
SWIDTH 361 0
DWIDTH 12 0
BBX 12 30 0 -6
BITMAP
0000
0000
0000
0000
0000
0000
0000
0000
0600
0E00
1E00
3E00
7600
6600
0600
0600
0600
0600
0600
0600
0600
0600
7FE0
7FE0
0000
0000
0000
0000
0000
0000
ENDCHAR

STARTCHAR two
ENCODING 50
SWIDTH 361 0
DWIDTH 12 0
BBX 12 30 0 -6
BITMAP
0000
0000
0000
0000
0000
0000
0000
0000
1F80
3FC0
70E0
6060
6060
00E0
01C0
0380
0700
0E00
1C00
3800
7000
6060
7FE0
7FE0
0000
0000
0000
0000
0000
0000
ENDCHAR

STARTCHAR three
ENCODING 51
SWIDTH 361 0
DWIDTH 12 0
BBX 12 30 0 -6
BITMAP
0000
0000
0000
0000
0000
0000
0000
0000
1F80
3FC0
70E0
6060
0060
00E0
07C0
07C0
00E0
0060
0060
0060
6060
70E0
3FC0
1F80
0000
0000
0000
0000
0000
0000
ENDCHAR

STARTCHAR four
ENCODING 52
SWIDTH 361 0
DWIDTH 12 0
BBX 12 30 0 -6
BITMAP
0000
0000
0000
0000
0000
0000
0000
0000
0380
0380
0780
0780
0D80
0D80
1980
1980
3180
3180
7FE0
7FE0
0180
0180
0180
0180
0000
0000
0000
0000
0000
0000
ENDCHAR

STARTCHAR five
ENCODING 53
SWIDTH 361 0
DWIDTH 12 0
BBX 12 30 0 -6
BITMAP
0000
0000
0000
0000
0000
0000
0000
0000
7FE0
7FE0
6000
6000
6000
6F80
7FC0
70E0
6060
0060
0060
0060
6060
70E0
3FC0
1F80
0000
0000
0000
0000
0000
0000
ENDCHAR

STARTCHAR six
ENCODING 54
SWIDTH 361 0
DWIDTH 12 0
BBX 12 30 0 -6
BITMAP
0000
0000
0000
0000
0000
0000
0000
0000
1F80
3FC0
70E0
6060
6000
6F80
7FC0
70E0
6060
6060
6060
6060
6060
70E0
3FC0
1F80
0000
0000
0000
0000
0000
0000
ENDCHAR

STARTCHAR seven
ENCODING 55
SWIDTH 361 0
DWIDTH 12 0
BBX 12 30 0 -6
BITMAP
0000
0000
0000
0000
0000
0000
0000
0000
7FC0
7FC0
00C0
00C0
0180
0180
0300
0300
0600
0600
0C00
0C00
1800
1800
3000
3000
0000
0000
0000
0000
0000
0000
ENDCHAR

STARTCHAR eight
ENCODING 56
SWIDTH 361 0
DWIDTH 12 0
BBX 12 30 0 -6
BITMAP
0000
0000
0000
0000
0000
0000
0000
0000
1F80
3FC0
70E0
6060
6060
70E0
3FC0
3FC0
70E0
6060
6060
6060
6060
70E0
3FC0
1F80
0000
0000
0000
0000
0000
0000
ENDCHAR

STARTCHAR nine
ENCODING 57
SWIDTH 361 0
DWIDTH 12 0
BBX 12 30 0 -6
BITMAP
0000
0000
0000
0000
0000
0000
0000
0000
1F80
3FC0
70E0
6060
6060
6060
6060
70E0
3FE0
1F60
0060
0060
6060
70E0
3FC0
1F80
0000
0000
0000
0000
0000
0000
ENDCHAR

STARTCHAR colon
ENCODING 58
SWIDTH 361 0
DWIDTH 12 0
BBX 12 30 0 -6
BITMAP
0000
0000
0000
0000
0000
0000
0000
0000
0000
0000
0000
0000
0000
0000
0600
0600
0600
0000
0000
0000
0000
0600
0600
0600
0000
0000
0000
0000
0000
0000
ENDCHAR

STARTCHAR semicolon
ENCODING 59
SWIDTH 361 0
DWIDTH 12 0
BBX 12 30 0 -6
BITMAP
0000
0000
0000
0000
0000
0000
0000
0000
0000
0000
0000
0000
0000
0000
0600
0600
0600
0000
0000
0000
0000
0600
0600
0600
0C00
1800
0000
0000
0000
0000
ENDCHAR

STARTCHAR less
ENCODING 60
SWIDTH 361 0
DWIDTH 12 0
BBX 12 30 0 -6
BITMAP
0000
0000
0000
0000
0000
0000
0000
0000
0000
0000
00E0
01C0
0380
0700
0E00
1C00
3800
3800
1C00
0E00
0700
0380
01C0
00E0
0000
0000
0000
0000
0000
0000
ENDCHAR

STARTCHAR equal
ENCODING 61
SWIDTH 361 0
DWIDTH 12 0
BBX 12 30 0 -6
BITMAP
0000
0000
0000
0000
0000
0000
0000
0000
0000
0000
0000
0000
0000
7FE0
7FE0
0000
0000
7FE0
7FE0
0000
0000
0000
0000
0000
0000
0000
0000
0000
0000
0000
ENDCHAR

STARTCHAR greater
ENCODING 62
SWIDTH 361 0
DWIDTH 12 0
BBX 12 30 0 -6
BITMAP
0000
0000
0000
0000
0000
0000
0000
0000
0000
0000
3800
1C00
0E00
0700
0380
01C0
00E0
00E0
01C0
0380
0700
0E00
1C00
3800
0000
0000
0000
0000
0000
0000
ENDCHAR

STARTCHAR question
ENCODING 63
SWIDTH 361 0
DWIDTH 12 0
BBX 12 30 0 -6
BITMAP
0000
0000
0000
0000
0000
0000
0000
0000
1F80
3FC0
70E0
6060
6060
00E0
01C0
0380
0700
0600
0600
0600
0000
0600
0600
0600
0000
0000
0000
0000
0000
0000
ENDCHAR

STARTCHAR at
ENCODING 64
SWIDTH 361 0
DWIDTH 12 0
BBX 12 30 0 -6
BITMAP
0000
0000
0000
0000
0000
0000
0000
0000
1F80
3FC0
70E0
6060
6360
67E0
6660
6660
6660
6660
67E0
6360
6000
7000
3FC0
1F80
0000
0000
0000
0000
0000
0000
ENDCHAR

STARTCHAR A
ENCODING 65
SWIDTH 361 0
DWIDTH 12 0
BBX 12 30 0 -6
BITMAP
0000
0000
0000
0000
0000
0000
0000
0000
0600
0600
0F00
1980
1980
30C0
30C0
6060
6060
7FE0
7FE0
6060
6060
6060
6060
6060
0000
0000
0000
0000
0000
0000
ENDCHAR

STARTCHAR B
ENCODING 66
SWIDTH 361 0
DWIDTH 12 0
BBX 12 30 0 -6
BITMAP
0000
0000
0000
0000
0000
0000
0000
0000
7F80
7FC0
60E0
6060
6060
60E0
7FC0
7FC0
60E0
6060
6060
6060
6060
60E0
7FC0
7F80
0000
0000
0000
0000
0000
0000
ENDCHAR

STARTCHAR C
ENCODING 67
SWIDTH 361 0
DWIDTH 12 0
BBX 12 30 0 -6
BITMAP
0000
0000
0000
0000
0000
0000
0000
0000
1F80
3FC0
70E0
6060
6000
6000
6000
6000
6000
6000
6000
6000
6060
70E0
3FC0
1F80
0000
0000
0000
0000
0000
0000
ENDCHAR

STARTCHAR D
ENCODING 68
SWIDTH 361 0
DWIDTH 12 0
BBX 12 30 0 -6
BITMAP
0000
0000
0000
0000
0000
0000
0000
0000
7F80
7FC0
30E0
3060
3060
3060
3060
3060
3060
3060
3060
3060
3060
30E0
7FC0
7F80
0000
0000
0000
0000
0000
0000
ENDCHAR

STARTCHAR E
ENCODING 69
SWIDTH 361 0
DWIDTH 12 0
BBX 12 30 0 -6
BITMAP
0000
0000
0000
0000
0000
0000
0000
0000
7FE0
7FE0
6000
6000
6000
6000
6000
7F80
7F80
6000
6000
6000
6000
6000
7FE0
7FE0
0000
0000
0000
0000
0000
0000
ENDCHAR

STARTCHAR F
ENCODING 70
SWIDTH 361 0
DWIDTH 12 0
BBX 12 30 0 -6
BITMAP
0000
0000
0000
0000
0000
0000
0000
0000
7FE0
7FE0
6000
6000
6000
6000
6000
7F80
7F80
6000
6000
6000
6000
6000
6000
6000
0000
0000
0000
0000
0000
0000
ENDCHAR

STARTCHAR G
ENCODING 71
SWIDTH 361 0
DWIDTH 12 0
BBX 12 30 0 -6
BITMAP
0000
0000
0000
0000
0000
0000
0000
0000
1F80
3FC0
70E0
6060
6000
6000
6000
61E0
61E0
6060
6060
6060
6060
7060
3FE0
1FE0
0000
0000
0000
0000
0000
0000
ENDCHAR

STARTCHAR H
ENCODING 72
SWIDTH 361 0
DWIDTH 12 0
BBX 12 30 0 -6
BITMAP
0000
0000
0000
0000
0000
0000
0000
0000
6060
6060
6060
6060
6060
6060
6060
7FE0
7FE0
6060
6060
6060
6060
6060
6060
6060
0000
0000
0000
0000
0000
0000
ENDCHAR

STARTCHAR I
ENCODING 73
SWIDTH 361 0
DWIDTH 12 0
BBX 12 30 0 -6
BITMAP
0000
0000
0000
0000
0000
0000
0000
0000
7FE0
7FE0
0600
0600
0600
0600
0600
0600
0600
0600
0600
0600
0600
0600
7FE0
7FE0
0000
0000
0000
0000
0000
0000
ENDCHAR

STARTCHAR J
ENCODING 74
SWIDTH 361 0
DWIDTH 12 0
BBX 12 30 0 -6
BITMAP
0000
0000
0000
0000
0000
0000
0000
0000
03F0
03F0
00C0
00C0
00C0
00C0
00C0
00C0
00C0
00C0
60C0
60C0
60C0
71C0
3F80
1F00
0000
0000
0000
0000
0000
0000
ENDCHAR

STARTCHAR K
ENCODING 75
SWIDTH 361 0
DWIDTH 12 0
BBX 12 30 0 -6
BITMAP
0000
0000
0000
0000
0000
0000
0000
0000
6060
60E0
61C0
6380
6700
6E00
7C00
7800
7800
7C00
6E00
6700
6380
61C0
60E0
6060
0000
0000
0000
0000
0000
0000
ENDCHAR

STARTCHAR L
ENCODING 76
SWIDTH 361 0
DWIDTH 12 0
BBX 12 30 0 -6
BITMAP
0000
0000
0000
0000
0000
0000
0000
0000
6000
6000
6000
6000
6000
6000
6000
6000
6000
6000
6000
6000
6000
6000
7FE0
7FE0
0000
0000
0000
0000
0000
0000
ENDCHAR

STARTCHAR M
ENCODING 77
SWIDTH 361 0
DWIDTH 12 0
BBX 12 30 0 -6
BITMAP
0000
0000
0000
0000
0000
0000
0000
0000
6060
70E0
70E0
79E0
79E0
6960
6F60
6F60
6660
6660
6060
6060
6060
6060
6060
6060
0000
0000
0000
0000
0000
0000
ENDCHAR

STARTCHAR N
ENCODING 78
SWIDTH 361 0
DWIDTH 12 0
BBX 12 30 0 -6
BITMAP
0000
0000
0000
0000
0000
0000
0000
0000
6060
7060
7060
7860
7860
6C60
6C60
6660
6660
6360
6360
61E0
61E0
60E0
60E0
6060
0000
0000
0000
0000
0000
0000
ENDCHAR

STARTCHAR O
ENCODING 79
SWIDTH 361 0
DWIDTH 12 0
BBX 12 30 0 -6
BITMAP
0000
0000
0000
0000
0000
0000
0000
0000
1F80
3FC0
70E0
6060
6060
6060
6060
6060
6060
6060
6060
6060
6060
70E0
3FC0
1F80
0000
0000
0000
0000
0000
0000
ENDCHAR

STARTCHAR P
ENCODING 80
SWIDTH 361 0
DWIDTH 12 0
BBX 12 30 0 -6
BITMAP
0000
0000
0000
0000
0000
0000
0000
0000
7F80
7FC0
60E0
6060
6060
6060
6060
60E0
7FC0
7F80
6000
6000
6000
6000
6000
6000
0000
0000
0000
0000
0000
0000
ENDCHAR

STARTCHAR Q
ENCODING 81
SWIDTH 361 0
DWIDTH 12 0
BBX 12 30 0 -6
BITMAP
0000
0000
0000
0000
0000
0000
0000
0000
1F80
3FC0
70E0
6060
6060
6060
6060
6060
6060
6060
6060
6060
6660
73E0
3FC0
1F80
0180
00C0
0000
0000
0000
0000
ENDCHAR

STARTCHAR R
ENCODING 82
SWIDTH 361 0
DWIDTH 12 0
BBX 12 30 0 -6
BITMAP
0000
0000
0000
0000
0000
0000
0000
0000
7F80
7FC0
60E0
6060
6060
6060
6060
60E0
7FC0
7F80
6300
6180
61C0
60C0
60E0
6060
0000
0000
0000
0000
0000
0000
ENDCHAR

STARTCHAR S
ENCODING 83
SWIDTH 361 0
DWIDTH 12 0
BBX 12 30 0 -6
BITMAP
0000
0000
0000
0000
0000
0000
0000
0000
1F80
3FC0
70E0
6060
6000
7000
3F80
1FC0
00E0
0060
0060
0060
6060
70E0
3FC0
1F80
0000
0000
0000
0000
0000
0000
ENDCHAR

STARTCHAR T
ENCODING 84
SWIDTH 361 0
DWIDTH 12 0
BBX 12 30 0 -6
BITMAP
0000
0000
0000
0000
0000
0000
0000
0000
7FE0
7FE0
0600
0600
0600
0600
0600
0600
0600
0600
0600
0600
0600
0600
0600
0600
0000
0000
0000
0000
0000
0000
ENDCHAR

STARTCHAR U
ENCODING 85
SWIDTH 361 0
DWIDTH 12 0
BBX 12 30 0 -6
BITMAP
0000
0000
0000
0000
0000
0000
0000
0000
6060
6060
6060
6060
6060
6060
6060
6060
6060
6060
6060
6060
6060
70E0
3FC0
1F80
0000
0000
0000
0000
0000
0000
ENDCHAR

STARTCHAR V
ENCODING 86
SWIDTH 361 0
DWIDTH 12 0
BBX 12 30 0 -6
BITMAP
0000
0000
0000
0000
0000
0000
0000
0000
6060
6060
6060
6060
6060
6060
6060
6060
70E0
30C0
30C0
1980
1980
0F00
0F00
0600
0000
0000
0000
0000
0000
0000
ENDCHAR

STARTCHAR W
ENCODING 87
SWIDTH 361 0
DWIDTH 12 0
BBX 12 30 0 -6
BITMAP
0000
0000
0000
0000
0000
0000
0000
0000
6060
6060
6060
6060
6060
6060
6660
6660
6660
6660
6660
6660
6660
6660
7FE0
39C0
0000
0000
0000
0000
0000
0000
ENDCHAR

STARTCHAR X
ENCODING 88
SWIDTH 361 0
DWIDTH 12 0
BBX 12 30 0 -6
BITMAP
0000
0000
0000
0000
0000
0000
0000
0000
6060
6060
6060
30C0
30C0
1980
1F80
0F00
0F00
1F80
1980
30C0
30C0
6060
6060
6060
0000
0000
0000
0000
0000
0000
ENDCHAR

STARTCHAR Y
ENCODING 89
SWIDTH 361 0
DWIDTH 12 0
BBX 12 30 0 -6
BITMAP
0000
0000
0000
0000
0000
0000
0000
0000
6060
6060
6060
6060
6060
70E0
30C0
39C0
1F80
0F00
0600
0600
0600
0600
0600
0600
0000
0000
0000
0000
0000
0000
ENDCHAR

STARTCHAR Z
ENCODING 90
SWIDTH 361 0
DWIDTH 12 0
BBX 12 30 0 -6
BITMAP
0000
0000
0000
0000
0000
0000
0000
0000
7FE0
7FE0
0060
0060
00E0
01C0
0380
0700
0E00
1C00
3800
7000
6000
6000
7FE0
7FE0
0000
0000
0000
0000
0000
0000
ENDCHAR

STARTCHAR bracketleft
ENCODING 91
SWIDTH 361 0
DWIDTH 12 0
BBX 12 30 0 -6
BITMAP
0000
0000
0000
0000
0000
0000
1F80
1F80
1800
1800
1800
1800
1800
1800
1800
1800
1800
1800
1800
1800
1800
1800
1800
1800
1F80
1F80
0000
0000
0000
0000
ENDCHAR

STARTCHAR backslash
ENCODING 92
SWIDTH 361 0
DWIDTH 12 0
BBX 12 30 0 -6
BITMAP
0000
0000
0000
0000
0000
0000
0000
0000
0000
3000
3000
1800
1800
0C00
0C00
0600
0600
0300
0300
0180
0180
00C0
00C0
0060
0060
0000
0000
0000
0000
0000
ENDCHAR

STARTCHAR bracketright
ENCODING 93
SWIDTH 361 0
DWIDTH 12 0
BBX 12 30 0 -6
BITMAP
0000
0000
0000
0000
0000
0000
1F80
1F80
0180
0180
0180
0180
0180
0180
0180
0180
0180
0180
0180
0180
0180
0180
0180
0180
1F80
1F80
0000
0000
0000
0000
ENDCHAR

STARTCHAR asciicircum
ENCODING 94
SWIDTH 361 0
DWIDTH 12 0
BBX 12 30 0 -6
BITMAP
0000
0000
0000
0000
0000
0000
0600
0F00
1F80
39C0
70E0
6060
0000
0000
0000
0000
0000
0000
0000
0000
0000
0000
0000
0000
0000
0000
0000
0000
0000
0000
ENDCHAR

STARTCHAR underscore
ENCODING 95
SWIDTH 361 0
DWIDTH 12 0
BBX 12 30 0 -6
BITMAP
0000
0000
0000
0000
0000
0000
0000
0000
0000
0000
0000
0000
0000
0000
0000
0000
0000
0000
0000
0000
0000
0000
0000
0000
7FE0
7FE0
0000
0000
0000
0000
ENDCHAR

STARTCHAR quoteleft
ENCODING 96
SWIDTH 361 0
DWIDTH 12 0
BBX 12 30 0 -6
BITMAP
0000
0000
0000
0000
0000
0000
0600
0600
0600
0300
0100
0000
0000
0000
0000
0000
0000
0000
0000
0000
0000
0000
0000
0000
0000
0000
0000
0000
0000
0000
ENDCHAR

STARTCHAR a
ENCODING 97
SWIDTH 361 0
DWIDTH 12 0
BBX 12 30 0 -6
BITMAP
0000
0000
0000
0000
0000
0000
0000
0000
0000
0000
0000
0000
3F80
3FC0
00E0
0060
1F60
3FE0
70E0
6060
6060
70E0
3FE0
1F60
0000
0000
0000
0000
0000
0000
ENDCHAR

STARTCHAR b
ENCODING 98
SWIDTH 361 0
DWIDTH 12 0
BBX 12 30 0 -6
BITMAP
0000
0000
0000
0000
0000
0000
0000
0000
6000
6000
6000
6000
6780
6FC0
78E0
7060
6060
6060
6060
6060
6060
70E0
7FC0
6F80
0000
0000
0000
0000
0000
0000
ENDCHAR

STARTCHAR c
ENCODING 99
SWIDTH 361 0
DWIDTH 12 0
BBX 12 30 0 -6
BITMAP
0000
0000
0000
0000
0000
0000
0000
0000
0000
0000
0000
0000
1F80
3FC0
70E0
6060
6000
6000
6000
6000
6060
70E0
3FC0
1F80
0000
0000
0000
0000
0000
0000
ENDCHAR

STARTCHAR d
ENCODING 100
SWIDTH 361 0
DWIDTH 12 0
BBX 12 30 0 -6
BITMAP
0000
0000
0000
0000
0000
0000
0000
0000
0060
0060
0060
0060
1F60
3FE0
70E0
6060
6060
6060
6060
6060
6060
70E0
3FE0
1F60
0000
0000
0000
0000
0000
0000
ENDCHAR

STARTCHAR e
ENCODING 101
SWIDTH 361 0
DWIDTH 12 0
BBX 12 30 0 -6
BITMAP
0000
0000
0000
0000
0000
0000
0000
0000
0000
0000
0000
0000
1F80
3FC0
70E0
6060
7FE0
7FE0
6000
6000
6060
70E0
3FC0
1F80
0000
0000
0000
0000
0000
0000
ENDCHAR

STARTCHAR f
ENCODING 102
SWIDTH 361 0
DWIDTH 12 0
BBX 12 30 0 -6
BITMAP
0000
0000
0000
0000
0000
0000
0000
0000
03C0
07E0
0E70
0C30
0C00
0C00
3FC0
3FC0
0C00
0C00
0C00
0C00
0C00
0C00
0C00
0C00
0000
0000
0000
0000
0000
0000
ENDCHAR

STARTCHAR g
ENCODING 103
SWIDTH 361 0
DWIDTH 12 0
BBX 12 30 0 -6
BITMAP
0000
0000
0000
0000
0000
0000
0000
0000
0000
0000
0000
0000
1FE0
3FE0
70E0
6060
6060
6060
6060
6060
30E0
3FE0
1FE0
0060
0060
60C0
7FC0
3F80
0000
0000
ENDCHAR

STARTCHAR h
ENCODING 104
SWIDTH 361 0
DWIDTH 12 0
BBX 12 30 0 -6
BITMAP
0000
0000
0000
0000
0000
0000
0000
0000
6000
6000
6000
6000
6780
6FC0
78E0
7060
6060
6060
6060
6060
6060
6060
6060
6060
0000
0000
0000
0000
0000
0000
ENDCHAR

STARTCHAR i
ENCODING 105
SWIDTH 362 0
DWIDTH 12 0
BBX 12 30 0 -6
BITMAP
0000
0000
0000
0000
0000
0000
0000
0000
0600
0600
0600
0000
3E00
3E00
0600
0600
0600
0600
0600
0600
0600
0600
7FE0
7FE0
0000
0000
0000
0000
0000
0000
ENDCHAR

STARTCHAR j
ENCODING 106
SWIDTH 361 0
DWIDTH 12 0
BBX 12 30 0 -6
BITMAP
0000
0000
0000
0000
0000
0000
0000
0000
00C0
00C0
00C0
0000
07C0
07C0
00C0
00C0
00C0
00C0
00C0
00C0
00C0
00C0
00C0
00C0
01C0
1F80
1F00
0000
0000
0000
ENDCHAR

STARTCHAR k
ENCODING 107
SWIDTH 361 0
DWIDTH 12 0
BBX 12 30 0 -6
BITMAP
0000
0000
0000
0000
0000
0000
0000
0000
6000
6000
6000
6000
61C0
6380
6700
6E00
7C00
7C00
7E00
6700
6380
61C0
60E0
6060
0000
0000
0000
0000
0000
0000
ENDCHAR

STARTCHAR l
ENCODING 108
SWIDTH 361 0
DWIDTH 12 0
BBX 12 30 0 -6
BITMAP
0000
0000
0000
0000
0000
0000
0000
0000
1E00
1E00
0600
0600
0600
0600
0600
0600
0600
0600
0600
0600
0600
0600
7FE0
7FE0
0000
0000
0000
0000
0000
0000
ENDCHAR

STARTCHAR m
ENCODING 109
SWIDTH 361 0
DWIDTH 12 0
BBX 12 30 0 -6
BITMAP
0000
0000
0000
0000
0000
0000
0000
0000
0000
0000
0000
0000
79C0
7FE0
6F60
6660
6660
6660
6660
6660
6660
6660
6660
6660
0000
0000
0000
0000
0000
0000
ENDCHAR

STARTCHAR n
ENCODING 110
SWIDTH 361 0
DWIDTH 12 0
BBX 12 30 0 -6
BITMAP
0000
0000
0000
0000
0000
0000
0000
0000
0000
0000
0000
0000
6780
6FC0
78E0
7060
6060
6060
6060
6060
6060
6060
6060
6060
0000
0000
0000
0000
0000
0000
ENDCHAR

STARTCHAR o
ENCODING 111
SWIDTH 361 0
DWIDTH 12 0
BBX 12 30 0 -6
BITMAP
0000
0000
0000
0000
0000
0000
0000
0000
0000
0000
0000
0000
1F80
3FC0
70E0
6060
6060
6060
6060
6060
6060
70E0
3FC0
1F80
0000
0000
0000
0000
0000
0000
ENDCHAR

STARTCHAR p
ENCODING 112
SWIDTH 361 0
DWIDTH 12 0
BBX 12 30 0 -6
BITMAP
0000
0000
0000
0000
0000
0000
0000
0000
0000
0000
0000
0000
6F80
7FC0
70E0
6060
6060
6060
6060
6060
6060
70E0
7FC0
6F80
6000
6000
6000
0000
0000
0000
ENDCHAR

STARTCHAR q
ENCODING 113
SWIDTH 361 0
DWIDTH 12 0
BBX 12 30 0 -6
BITMAP
0000
0000
0000
0000
0000
0000
0000
0000
0000
0000
0000
0000
1F60
3FE0
70E0
6060
6060
6060
6060
6060
60E0
71E0
3F60
1E60
0060
0060
0060
0000
0000
0000
ENDCHAR

STARTCHAR r
ENCODING 114
SWIDTH 361 0
DWIDTH 12 0
BBX 12 30 0 -6
BITMAP
0000
0000
0000
0000
0000
0000
0000
0000
0000
0000
0000
0000
33C0
3FE0
1C60
1800
1800
1800
1800
1800
1800
1800
1800
1800
0000
0000
0000
0000
0000
0000
ENDCHAR

STARTCHAR s
ENCODING 115
SWIDTH 361 0
DWIDTH 12 0
BBX 12 30 0 -6
BITMAP
0000
0000
0000
0000
0000
0000
0000
0000
0000
0000
0000
0000
1F80
3FC0
70E0
6060
7000
3F80
1FC0
00E0
6060
70E0
3FC0
1F80
0000
0000
0000
0000
0000
0000
ENDCHAR

STARTCHAR t
ENCODING 116
SWIDTH 361 0
DWIDTH 12 0
BBX 12 30 0 -6
BITMAP
0000
0000
0000
0000
0000
0000
0000
0000
1800
1800
1800
1800
7F80
7F80
1800
1800
1800
1800
1800
1800
1860
1CE0
0FC0
0780
0000
0000
0000
0000
0000
0000
ENDCHAR

STARTCHAR u
ENCODING 117
SWIDTH 361 0
DWIDTH 12 0
BBX 12 30 0 -6
BITMAP
0000
0000
0000
0000
0000
0000
0000
0000
0000
0000
0000
0000
6060
6060
6060
6060
6060
6060
6060
6060
60E0
71E0
3F60
1E60
0000
0000
0000
0000
0000
0000
ENDCHAR

STARTCHAR v
ENCODING 118
SWIDTH 361 0
DWIDTH 12 0
BBX 12 30 0 -6
BITMAP
0000
0000
0000
0000
0000
0000
0000
0000
0000
0000
0000
0000
6060
6060
6060
6060
6060
6060
30C0
30C0
1980
1980
0F00
0600
0000
0000
0000
0000
0000
0000
ENDCHAR

STARTCHAR w
ENCODING 119
SWIDTH 361 0
DWIDTH 12 0
BBX 12 30 0 -6
BITMAP
0000
0000
0000
0000
0000
0000
0000
0000
0000
0000
0000
0000
6060
6060
6060
6060
6660
6660
6660
6660
6660
6660
3FC0
1980
0000
0000
0000
0000
0000
0000
ENDCHAR

STARTCHAR x
ENCODING 120
SWIDTH 361 0
DWIDTH 12 0
BBX 12 30 0 -6
BITMAP
0000
0000
0000
0000
0000
0000
0000
0000
0000
0000
0000
0000
70E0
30C0
1980
1980
0F00
0600
0600
0F00
1980
1980
30C0
70E0
0000
0000
0000
0000
0000
0000
ENDCHAR

STARTCHAR y
ENCODING 121
SWIDTH 361 0
DWIDTH 12 0
BBX 12 30 0 -6
BITMAP
0000
0000
0000
0000
0000
0000
0000
0000
0000
0000
0000
0000
6060
6060
6060
6060
7060
30C0
30C0
18C0
1F80
0F80
0300
0700
0E00
3C00
3800
0000
0000
0000
ENDCHAR

STARTCHAR z
ENCODING 122
SWIDTH 361 0
DWIDTH 12 0
BBX 12 30 0 -6
BITMAP
0000
0000
0000
0000
0000
0000
0000
0000
0000
0000
0000
0000
7FE0
7FE0
00E0
01C0
0380
0700
0E00
1C00
3800
7000
7FE0
7FE0
0000
0000
0000
0000
0000
0000
ENDCHAR

STARTCHAR braceleft
ENCODING 123
SWIDTH 361 0
DWIDTH 12 0
BBX 12 30 0 -6
BITMAP
0000
0000
0000
0000
0000
0000
0380
0780
0E00
0C00
0C00
0E00
0700
0300
3E00
3E00
0300
0700
0E00
0C00
0C00
0C00
0C00
0E00
07C0
03C0
0000
0000
0000
0000
ENDCHAR

STARTCHAR bar
ENCODING 124
SWIDTH 361 0
DWIDTH 12 0
BBX 12 30 0 -6
BITMAP
0000
0000
0000
0000
0000
0000
0000
0000
0600
0600
0600
0600
0600
0600
0600
0600
0600
0600
0600
0600
0600
0600
0600
0600
0000
0000
0000
0000
0000
0000
ENDCHAR

STARTCHAR braceright
ENCODING 125
SWIDTH 361 0
DWIDTH 12 0
BBX 12 30 0 -6
BITMAP
0000
0000
0000
0000
0000
0000
3C00
3E00
0700
0300
0300
0700
0E00
0C00
07C0
07C0
0C00
0E00
0700
0300
0300
0300
0300
0700
3E00
3C00
0000
0000
0000
0000
ENDCHAR

STARTCHAR asciitilde
ENCODING 126
SWIDTH 361 0
DWIDTH 12 0
BBX 12 30 0 -6
BITMAP
0000
0000
0000
0000
0000
0000
3860
7C60
7E60
67E0
63E0
61C0
0000
0000
0000
0000
0000
0000
0000
0000
0000
0000
0000
0000
0000
0000
0000
0000
0000
0000
ENDCHAR

STARTCHAR space
ENCODING 160
SWIDTH 361 0
DWIDTH 12 0
BBX 12 30 0 -6
BITMAP
0000
0000
0000
0000
0000
0000
0000
0000
0000
0000
0000
0000
0000
0000
0000
0000
0000
0000
0000
0000
0000
0000
0000
0000
0000
0000
0000
0000
0000
0000
ENDCHAR

STARTCHAR afii10023
ENCODING 161
SWIDTH 361 0
DWIDTH 12 0
BBX 12 30 0 -6
BITMAP
0000
0000
0000
1980
1980
1980
0000
0000
7FE0
7FE0
6000
6000
6000
6000
6000
7F80
7F80
6000
6000
6000
6000
6000
7FE0
7FE0
0000
0000
0000
0000
0000
0000
ENDCHAR

STARTCHAR afii10051
ENCODING 162
SWIDTH 361 0
DWIDTH 12 0
BBX 12 30 0 -6
BITMAP
0000
0000
0000
0000
0000
0000
0000
0000
FF00
FF00
1800
1800
1800
1B80
1FE0
1C60
1830
1830
1830
1830
1830
1860
19E0
1980
0000
0000
0000
0000
0000
0000
ENDCHAR

STARTCHAR afii10052
ENCODING 163
SWIDTH 361 0
DWIDTH 12 0
BBX 12 30 0 -6
BITMAP
0000
0000
0000
0180
0300
0600
0000
0000
3FE0
3FE0
3000
3000
3000
3000
3000
3000
3000
3000
3000
3000
3000
3000
3000
3000
0000
0000
0000
0000
0000
0000
ENDCHAR

STARTCHAR afii10053
ENCODING 164
SWIDTH 361 0
DWIDTH 12 0
BBX 12 30 0 -6
BITMAP
0000
0000
0000
0000
0000
0000
0000
0000
1F80
3FC0
70E0
6060
6000
6000
6000
7F00
7F00
6000
6000
6000
6060
70E0
3FC0
1F80
0000
0000
0000
0000
0000
0000
ENDCHAR

STARTCHAR afii10054
ENCODING 165
SWIDTH 361 0
DWIDTH 12 0
BBX 12 30 0 -6
BITMAP
0000
0000
0000
0000
0000
0000
0000
0000
1F80
3FC0
70E0
6060
6000
7000
3F80
1FC0
00E0
0060
0060
0060
6060
70E0
3FC0
1F80
0000
0000
0000
0000
0000
0000
ENDCHAR

STARTCHAR afii10055
ENCODING 166
SWIDTH 361 0
DWIDTH 12 0
BBX 12 30 0 -6
BITMAP
0000
0000
0000
0000
0000
0000
0000
0000
7FE0
7FE0
0600
0600
0600
0600
0600
0600
0600
0600
0600
0600
0600
0600
7FE0
7FE0
0000
0000
0000
0000
0000
0000
ENDCHAR

STARTCHAR afii10056
ENCODING 167
SWIDTH 361 0
DWIDTH 12 0
BBX 12 30 0 -6
BITMAP
0000
0000
0000
1980
1980
1980
0000
0000
7FE0
7FE0
0600
0600
0600
0600
0600
0600
0600
0600
0600
0600
0600
0600
7FE0
7FE0
0000
0000
0000
0000
0000
0000
ENDCHAR

STARTCHAR afii10057
ENCODING 168
SWIDTH 361 0
DWIDTH 12 0
BBX 12 30 0 -6
BITMAP
0000
0000
0000
0000
0000
0000
0000
0000
03F0
03F0
00C0
00C0
00C0
00C0
00C0
00C0
00C0
00C0
60C0
60C0
60C0
71C0
3F80
1F00
0000
0000
0000
0000
0000
0000
ENDCHAR

STARTCHAR afii10058
ENCODING 169
SWIDTH 361 0
DWIDTH 12 0
BBX 12 30 0 -6
BITMAP
0000
0000
0000
0000
0000
0000
0000
0000
1F00
1F00
1B00
1B00
1B00
1B00
1BC0
1BE0
1B70
1B30
1B30
1B30
1B30
1B70
FBE0
F3C0
0000
0000
0000
0000
0000
0000
ENDCHAR

STARTCHAR afii10059
ENCODING 170
SWIDTH 361 0
DWIDTH 12 0
BBX 12 30 0 -6
BITMAP
0000
0000
0000
0000
0000
0000
0000
0000
6600
6600
6600
6600
6600
6600
7FC0
7FE0
6670
6630
6630
6630
6630
6670
67E0
67C0
0000
0000
0000
0000
0000
0000
ENDCHAR

STARTCHAR afii10060
ENCODING 171
SWIDTH 361 0
DWIDTH 12 0
BBX 12 30 0 -6
BITMAP
0000
0000
0000
0000
0000
0000
0000
0000
FF00
FF00
1800
1800
1800
1800
1B80
1FE0
1C60
1830
1830
1830
1830
1830
1830
1830
0000
0000
0000
0000
0000
0000
ENDCHAR

STARTCHAR afii10061
ENCODING 172
SWIDTH 361 0
DWIDTH 12 0
BBX 12 30 0 -6
BITMAP
0000
0000
0000
0300
0600
0C00
0000
0000
61C0
63C0
6300
6600
6600
6C00
6C00
7800
7C00
6E00
6600
6300
6300
6180
61C0
60C0
0000
0000
0000
0000
0000
0000
ENDCHAR

STARTCHAR hyphen
ENCODING 173
SWIDTH 361 0
DWIDTH 12 0
BBX 12 30 0 -6
BITMAP
0000
0000
0000
0000
0000
0000
0000
0000
0000
0000
0000
0000
0000
0000
0000
7FE0
7FE0
0000
0000
0000
0000
0000
0000
0000
0000
0000
0000
0000
0000
0000
ENDCHAR

STARTCHAR afii10062
ENCODING 174
SWIDTH 361 0
DWIDTH 12 0
BBX 12 30 0 -6
BITMAP
0000
0000
0000
18C0
18C0
1FC0
0F80
0000
6060
6060
6060
6060
7060
30C0
30C0
18C0
1F80
0F80
0300
0700
0600
6E00
7C00
3800
0000
0000
0000
0000
0000
0000
ENDCHAR

STARTCHAR afii10145
ENCODING 175
SWIDTH 361 0
DWIDTH 12 0
BBX 12 30 0 -6
BITMAP
0000
0000
0000
0000
0000
0000
0000
0000
6060
6060
6060
6060
6060
6060
6060
6060
6060
6060
6060
6060
6060
6060
7FE0
7FE0
0600
0600
0600
0600
0000
0000
ENDCHAR

STARTCHAR afii10017
ENCODING 176
SWIDTH 361 0
DWIDTH 12 0
BBX 12 30 0 -6
BITMAP
0000
0000
0000
0000
0000
0000
0000
0000
0600
0600
0F00
1980
1980
30C0
30C0
6060
6060
7FE0
7FE0
6060
6060
6060
6060
6060
0000
0000
0000
0000
0000
0000
ENDCHAR

STARTCHAR afii10018
ENCODING 177
SWIDTH 361 0
DWIDTH 12 0
BBX 12 30 0 -6
BITMAP
0000
0000
0000
0000
0000
0000
0000
0000
7FC0
7FC0
6000
6000
6000
6000
7F80
7FC0
60E0
6060
6060
6060
6060
60E0
7FC0
7F80
0000
0000
0000
0000
0000
0000
ENDCHAR

STARTCHAR afii10019
ENCODING 178
SWIDTH 361 0
DWIDTH 12 0
BBX 12 30 0 -6
BITMAP
0000
0000
0000
0000
0000
0000
0000
0000
7F80
7FC0
60E0
6060
6060
60E0
7FC0
7FC0
60E0
6060
6060
6060
6060
60E0
7FC0
7F80
0000
0000
0000
0000
0000
0000
ENDCHAR

STARTCHAR afii10020
ENCODING 179
SWIDTH 361 0
DWIDTH 12 0
BBX 12 30 0 -6
BITMAP
0000
0000
0000
0000
0000
0000
0000
0000
3FE0
3FE0
3000
3000
3000
3000
3000
3000
3000
3000
3000
3000
3000
3000
3000
3000
0000
0000
0000
0000
0000
0000
ENDCHAR

STARTCHAR afii10021
ENCODING 180
SWIDTH 361 0
DWIDTH 12 0
BBX 12 30 0 -6
BITMAP
0000
0000
0000
0000
0000
0000
0000
0000
0FE0
0FE0
0C60
0C60
0C60
0C60
0C60
0C60
0C60
0C60
0C60
0C60
0C60
1860
3FE0
7FF0
6030
6030
6030
6030
0000
0000
ENDCHAR

STARTCHAR afii10022
ENCODING 181
SWIDTH 361 0
DWIDTH 12 0
BBX 12 30 0 -6
BITMAP
0000
0000
0000
0000
0000
0000
0000
0000
7FE0
7FE0
6000
6000
6000
6000
6000
7F80
7F80
6000
6000
6000
6000
6000
7FE0
7FE0
0000
0000
0000
0000
0000
0000
ENDCHAR

STARTCHAR afii10024
ENCODING 182
SWIDTH 361 0
DWIDTH 12 0
BBX 12 30 0 -6
BITMAP
0000
0000
0000
0000
0000
0000
0000
0000
C630
E670
6660
6660
36C0
36C0
36C0
3FC0
1F80
36C0
36C0
6660
6660
C630
C630
C630
0000
0000
0000
0000
0000
0000
ENDCHAR

STARTCHAR afii10025
ENCODING 183
SWIDTH 361 0
DWIDTH 12 0
BBX 12 30 0 -6
BITMAP
0000
0000
0000
0000
0000
0000
0000
0000
0FC0
1FE0
3870
3030
0030
0070
07E0
07E0
0070
0030
0030
0030
6030
7070
3FE0
1FC0
0000
0000
0000
0000
0000
0000
ENDCHAR

STARTCHAR afii10026
ENCODING 184
SWIDTH 361 0
DWIDTH 12 0
BBX 12 30 0 -6
BITMAP
0000
0000
0000
0000
0000
0000
0000
0000
6060
60E0
60E0
61E0
61E0
6360
6360
6660
6660
6C60
6C60
7860
7860
7060
7060
6060
0000
0000
0000
0000
0000
0000
ENDCHAR

STARTCHAR afii10027
ENCODING 185
SWIDTH 361 0
DWIDTH 12 0
BBX 12 30 0 -6
BITMAP
0000
0000
0000
18C0
18C0
1FC0
0F80
0000
6060
60E0
60E0
61E0
61E0
6360
6360
6660
6660
6C60
6C60
7860
7860
7060
7060
6060
0000
0000
0000
0000
0000
0000
ENDCHAR

STARTCHAR afii10028
ENCODING 186
SWIDTH 361 0
DWIDTH 12 0
BBX 12 30 0 -6
BITMAP
0000
0000
0000
0000
0000
0000
0000
0000
61C0
63C0
6300
6600
6600
6C00
6C00
7800
7C00
6E00
6600
6300
6300
6180
61C0
60C0
0000
0000
0000
0000
0000
0000
ENDCHAR

STARTCHAR afii10029
ENCODING 187
SWIDTH 361 0
DWIDTH 12 0
BBX 12 30 0 -6
BITMAP
0000
0000
0000
0000
0000
0000
0000
0000
0FF0
0FF0
0C30
0C30
0C30
0C30
0C30
0C30
0C30
0C30
0C30
0C30
0C30
0C30
7C30
7830
0000
0000
0000
0000
0000
0000
ENDCHAR

STARTCHAR afii10030
ENCODING 188
SWIDTH 361 0
DWIDTH 12 0
BBX 12 30 0 -6
BITMAP
0000
0000
0000
0000
0000
0000
0000
0000
6060
70E0
70E0
79E0
79E0
6960
6F60
6F60
6660
6660
6060
6060
6060
6060
6060
6060
0000
0000
0000
0000
0000
0000
ENDCHAR

STARTCHAR afii10031
ENCODING 189
SWIDTH 361 0
DWIDTH 12 0
BBX 12 30 0 -6
BITMAP
0000
0000
0000
0000
0000
0000
0000
0000
6060
6060
6060
6060
6060
6060
6060
7FE0
7FE0
6060
6060
6060
6060
6060
6060
6060
0000
0000
0000
0000
0000
0000
ENDCHAR

STARTCHAR afii10032
ENCODING 190
SWIDTH 361 0
DWIDTH 12 0
BBX 12 30 0 -6
BITMAP
0000
0000
0000
0000
0000
0000
0000
0000
1F80
3FC0
70E0
6060
6060
6060
6060
6060
6060
6060
6060
6060
6060
70E0
3FC0
1F80
0000
0000
0000
0000
0000
0000
ENDCHAR

STARTCHAR afii10033
ENCODING 191
SWIDTH 361 0
DWIDTH 12 0
BBX 12 30 0 -6
BITMAP
0000
0000
0000
0000
0000
0000
0000
0000
7FE0
7FE0
6060
6060
6060
6060
6060
6060
6060
6060
6060
6060
6060
6060
6060
6060
0000
0000
0000
0000
0000
0000
ENDCHAR

STARTCHAR afii10034
ENCODING 192
SWIDTH 361 0
DWIDTH 12 0
BBX 12 30 0 -6
BITMAP
0000
0000
0000
0000
0000
0000
0000
0000
7F80
7FC0
60E0
6060
6060
6060
6060
60E0
7FC0
7F80
6000
6000
6000
6000
6000
6000
0000
0000
0000
0000
0000
0000
ENDCHAR

STARTCHAR afii10035
ENCODING 193
SWIDTH 361 0
DWIDTH 12 0
BBX 12 30 0 -6
BITMAP
0000
0000
0000
0000
0000
0000
0000
0000
1F80
3FC0
70E0
6060
6000
6000
6000
6000
6000
6000
6000
6000
6060
70E0
3FC0
1F80
0000
0000
0000
0000
0000
0000
ENDCHAR

STARTCHAR afii10036
ENCODING 194
SWIDTH 361 0
DWIDTH 12 0
BBX 12 30 0 -6
BITMAP
0000
0000
0000
0000
0000
0000
0000
0000
7FE0
7FE0
0600
0600
0600
0600
0600
0600
0600
0600
0600
0600
0600
0600
0600
0600
0000
0000
0000
0000
0000
0000
ENDCHAR

STARTCHAR afii10037
ENCODING 195
SWIDTH 361 0
DWIDTH 12 0
BBX 12 30 0 -6
BITMAP
0000
0000
0000
0000
0000
0000
0000
0000
6060
6060
6060
6060
7060
30C0
30C0
18C0
1F80
0F80
0300
0700
0600
6E00
7C00
3800
0000
0000
0000
0000
0000
0000
ENDCHAR

STARTCHAR afii10038
ENCODING 196
SWIDTH 361 0
DWIDTH 12 0
BBX 12 30 0 -6
BITMAP
0000
0000
0000
0000
0000
0000
0000
0000
0600
0600
3FC0
7FE0
E670
C630
C630
C630
C630
C630
C630
E670
7FE0
3FC0
0600
0600
0000
0000
0000
0000
0000
0000
ENDCHAR

STARTCHAR afii10039
ENCODING 197
SWIDTH 361 0
DWIDTH 12 0
BBX 12 30 0 -6
BITMAP
0000
0000
0000
0000
0000
0000
0000
0000
6060
6060
6060
30C0
30C0
1980
1F80
0F00
0F00
1F80
1980
30C0
30C0
6060
6060
6060
0000
0000
0000
0000
0000
0000
ENDCHAR

STARTCHAR afii10040
ENCODING 198
SWIDTH 361 0
DWIDTH 12 0
BBX 12 30 0 -6
BITMAP
0000
0000
0000
0000
0000
0000
0000
0000
6060
6060
6060
6060
6060
6060
6060
6060
6060
6060
6060
6060
6060
6060
7FF0
7FF0
0030
0030
0030
0030
0000
0000
ENDCHAR

STARTCHAR afii10041
ENCODING 199
SWIDTH 361 0
DWIDTH 12 0
BBX 12 30 0 -6
BITMAP
0000
0000
0000
0000
0000
0000
0000
0000
3060
3060
3060
3060
3060
3060
3060
3060
18E0
1FE0
0760
0060
0060
0060
0060
0060
0000
0000
0000
0000
0000
0000
ENDCHAR

STARTCHAR afii10042
ENCODING 200
SWIDTH 361 0
DWIDTH 12 0
BBX 12 30 0 -6
BITMAP
0000
0000
0000
0000
0000
0000
0000
0000
6660
6660
6660
6660
6660
6660
6660
6660
6660
6660
6660
6660
6660
6660
7FE0
7FE0
0000
0000
0000
0000
0000
0000
ENDCHAR

STARTCHAR afii10043
ENCODING 201
SWIDTH 361 0
DWIDTH 12 0
BBX 12 30 0 -6
BITMAP
0000
0000
0000
0000
0000
0000
0000
0000
6660
6660
6660
6660
6660
6660
6660
6660
6660
6660
6660
6660
6660
6660
7FF0
7FF0
0030
0030
0030
0030
0000
0000
ENDCHAR

STARTCHAR afii10044
ENCODING 202
SWIDTH 361 0
DWIDTH 12 0
BBX 12 30 0 -6
BITMAP
0000
0000
0000
0000
0000
0000
0000
0000
FC00
FC00
0C00
0C00
0C00
0C00
0FC0
0FE0
0C70
0C30
0C30
0C30
0C30
0C70
0FE0
0FC0
0000
0000
0000
0000
0000
0000
ENDCHAR

STARTCHAR afii10045
ENCODING 203
SWIDTH 361 0
DWIDTH 12 0
BBX 12 30 0 -6
BITMAP
0000
0000
0000
0000
0000
0000
0000
0000
6060
6060
6060
6060
6060
6060
7C60
7E60
6760
6360
6360
6360
6360
6760
7E60
7C60
0000
0000
0000
0000
0000
0000
ENDCHAR

STARTCHAR afii10046
ENCODING 204
SWIDTH 361 0
DWIDTH 12 0
BBX 12 30 0 -6
BITMAP
0000
0000
0000
0000
0000
0000
0000
0000
6000
6000
6000
6000
6000
6000
6000
7F80
7FC0
60E0
6060
6060
6060
60E0
7FC0
7F80
0000
0000
0000
0000
0000
0000
ENDCHAR

STARTCHAR afii10047
ENCODING 205
SWIDTH 361 0
DWIDTH 12 0
BBX 12 30 0 -6
BITMAP
0000
0000
0000
0000
0000
0000
0000
0000
1F80
3FC0
70E0
6060
0060
0060
0060
0FE0
0FE0
0060
0060
0060
6060
70E0
3FC0
1F80
0000
0000
0000
0000
0000
0000
ENDCHAR

STARTCHAR afii10048
ENCODING 206
SWIDTH 361 0
DWIDTH 12 0
BBX 12 30 0 -6
BITMAP
0000
0000
0000
0000
0000
0000
0000
0000
63C0
67E0
6E70
6C30
6C30
6C30
6C30
7C30
7C30
6C30
6C30
6C30
6C30
6E70
67E0
63C0
0000
0000
0000
0000
0000
0000
ENDCHAR

STARTCHAR afii10049
ENCODING 207
SWIDTH 361 0
DWIDTH 12 0
BBX 12 30 0 -6
BITMAP
0000
0000
0000
0000
0000
0000
0000
0000
1FE0
3FE0
7060
6060
6060
6060
6060
7060
3FE0
1FE0
0C60
1860
3860
3060
7060
6060
0000
0000
0000
0000
0000
0000
ENDCHAR

STARTCHAR afii10065
ENCODING 208
SWIDTH 361 0
DWIDTH 12 0
BBX 12 30 0 -6
BITMAP
0000
0000
0000
0000
0000
0000
0000
0000
0000
0000
0000
0000
3F80
3FC0
00E0
0060
1F60
3FE0
70E0
6060
6060
70E0
3FE0
1F60
0000
0000
0000
0000
0000
0000
ENDCHAR

STARTCHAR afii10066
ENCODING 209
SWIDTH 361 0
DWIDTH 12 0
BBX 12 30 0 -6
BITMAP
0000
0000
0000
0000
0000
0000
0000
00C0
00C0
1FC0
3F80
3000
3F80
7FC0
70E0
6060
6060
6060
6060
6060
6060
70E0
3FC0
1F80
0000
0000
0000
0000
0000
0000
ENDCHAR

STARTCHAR afii10067
ENCODING 210
SWIDTH 361 0
DWIDTH 12 0
BBX 12 30 0 -6
BITMAP
0000
0000
0000
0000
0000
0000
0000
0000
0000
0000
0000
0000
3F00
3F80
31C0
30C0
31C0
3F80
3FC0
30E0
3060
30E0
3FC0
3F80
0000
0000
0000
0000
0000
0000
ENDCHAR

STARTCHAR afii10068
ENCODING 211
SWIDTH 361 0
DWIDTH 12 0
BBX 12 30 0 -6
BITMAP
0000
0000
0000
0000
0000
0000
0000
0000
0000
0000
0000
0000
3FE0
3FE0
3000
3000
3000
3000
3000
3000
3000
3000
3000
3000
0000
0000
0000
0000
0000
0000
ENDCHAR

STARTCHAR afii10069
ENCODING 212
SWIDTH 361 0
DWIDTH 12 0
BBX 12 30 0 -6
BITMAP
0000
0000
0000
0000
0000
0000
0000
0000
0000
0000
0000
0000
0FE0
0FE0
0C60
0C60
0C60
0C60
0C60
0C60
0C60
1860
3FE0
7FF0
6030
6030
6030
0000
0000
0000
ENDCHAR

STARTCHAR afii10070
ENCODING 213
SWIDTH 361 0
DWIDTH 12 0
BBX 12 30 0 -6
BITMAP
0000
0000
0000
0000
0000
0000
0000
0000
0000
0000
0000
0000
1F80
3FC0
70E0
6060
7FE0
7FE0
6000
6000
6060
70E0
3FC0
1F80
0000
0000
0000
0000
0000
0000
ENDCHAR

STARTCHAR afii10072
ENCODING 214
SWIDTH 361 0
DWIDTH 12 0
BBX 12 30 0 -6
BITMAP
0000
0000
0000
0000
0000
0000
0000
0000
0000
0000
0000
0000
C630
E670
6660
36C0
36C0
1F80
3FC0
36C0
6660
6660
C630
C630
0000
0000
0000
0000
0000
0000
ENDCHAR

STARTCHAR afii10073
ENCODING 215
SWIDTH 361 0
DWIDTH 12 0
BBX 12 30 0 -6
BITMAP
0000
0000
0000
0000
0000
0000
0000
0000
0000
0000
0000
0000
1F80
3FC0
70E0
6060
0060
0FC0
0FC0
0060
6060
70E0
3FC0
1F80
0000
0000
0000
0000
0000
0000
ENDCHAR

STARTCHAR afii10074
ENCODING 216
SWIDTH 361 0
DWIDTH 12 0
BBX 12 30 0 -6
BITMAP
0000
0000
0000
0000
0000
0000
0000
0000
0000
0000
0000
0000
3060
30E0
30E0
31E0
3160
3360
3660
3460
3C60
3860
3860
3060
0000
0000
0000
0000
0000
0000
ENDCHAR

STARTCHAR afii10075
ENCODING 217
SWIDTH 361 0
DWIDTH 12 0
BBX 12 30 0 -6
BITMAP
0000
0000
0000
0000
0000
0000
18C0
18C0
1FC0
0F80
0000
0000
3060
30E0
30E0
31E0
3160
3360
3660
3460
3C60
3860
3860
3060
0000
0000
0000
0000
0000
0000
ENDCHAR

STARTCHAR afii10076
ENCODING 218
SWIDTH 361 0
DWIDTH 12 0
BBX 12 30 0 -6
BITMAP
0000
0000
0000
0000
0000
0000
0000
0000
0000
0000
0000
0000
30C0
31C0
3300
3300
3600
3E00
3F00
3300
3180
3180
30C0
30C0
0000
0000
0000
0000
0000
0000
ENDCHAR

STARTCHAR afii10077
ENCODING 219
SWIDTH 361 0
DWIDTH 12 0
BBX 12 30 0 -6
BITMAP
0000
0000
0000
0000
0000
0000
0000
0000
0000
0000
0000
0000
0FF0
0FF0
0C30
0C30
0C30
0C30
0C30
0C30
0C30
0C30
7C30
7830
0000
0000
0000
0000
0000
0000
ENDCHAR

STARTCHAR afii10078
ENCODING 220
SWIDTH 361 0
DWIDTH 12 0
BBX 12 30 0 -6
BITMAP
0000
0000
0000
0000
0000
0000
0000
0000
0000
0000
0000
0000
6060
6060
70E0
70E0
79E0
79E0
6F60
6F60
6660
6660
6060
6060
0000
0000
0000
0000
0000
0000
ENDCHAR

STARTCHAR afii10079
ENCODING 221
SWIDTH 361 0
DWIDTH 12 0
BBX 12 30 0 -6
BITMAP
0000
0000
0000
0000
0000
0000
0000
0000
0000
0000
0000
0000
3060
3060
3060
3060
3060
3FE0
3FE0
3060
3060
3060
3060
3060
0000
0000
0000
0000
0000
0000
ENDCHAR

STARTCHAR afii10080
ENCODING 222
SWIDTH 361 0
DWIDTH 12 0
BBX 12 30 0 -6
BITMAP
0000
0000
0000
0000
0000
0000
0000
0000
0000
0000
0000
0000
1F80
3FC0
70E0
6060
6060
6060
6060
6060
6060
70E0
3FC0
1F80
0000
0000
0000
0000
0000
0000
ENDCHAR

STARTCHAR afii10081
ENCODING 223
SWIDTH 361 0
DWIDTH 12 0
BBX 12 30 0 -6
BITMAP
0000
0000
0000
0000
0000
0000
0000
0000
0000
0000
0000
0000
3FE0
3FE0
3060
3060
3060
3060
3060
3060
3060
3060
3060
3060
0000
0000
0000
0000
0000
0000
ENDCHAR

STARTCHAR afii10082
ENCODING 224
SWIDTH 361 0
DWIDTH 12 0
BBX 12 30 0 -6
BITMAP
0000
0000
0000
0000
0000
0000
0000
0000
0000
0000
0000
0000
6F80
7FC0
70E0
6060
6060
6060
6060
6060
6060
70E0
7FC0
6F80
6000
6000
6000
0000
0000
0000
ENDCHAR

STARTCHAR afii10083
ENCODING 225
SWIDTH 361 0
DWIDTH 12 0
BBX 12 30 0 -6
BITMAP
0000
0000
0000
0000
0000
0000
0000
0000
0000
0000
0000
0000
1F80
3FC0
70E0
6060
6000
6000
6000
6000
6060
70E0
3FC0
1F80
0000
0000
0000
0000
0000
0000
ENDCHAR

STARTCHAR afii10084
ENCODING 226
SWIDTH 361 0
DWIDTH 12 0
BBX 12 30 0 -6
BITMAP
0000
0000
0000
0000
0000
0000
0000
0000
0000
0000
0000
0000
7FE0
7FE0
0600
0600
0600
0600
0600
0600
0600
0600
0600
0600
0000
0000
0000
0000
0000
0000
ENDCHAR

STARTCHAR afii10085
ENCODING 227
SWIDTH 361 0
DWIDTH 12 0
BBX 12 30 0 -6
BITMAP
0000
0000
0000
0000
0000
0000
0000
0000
0000
0000
0000
0000
6060
6060
6060
6060
7060
30C0
30C0
18C0
1F80
0F80
0300
0700
0600
6E00
7C00
3800
0000
0000
ENDCHAR

STARTCHAR afii10086
ENCODING 228
SWIDTH 361 0
DWIDTH 12 0
BBX 12 30 0 -6
BITMAP
0000
0000
0000
0000
0000
0000
0000
0000
0600
0600
0600
0600
1F80
3FC0
76E0
6660
6660
6660
6660
6660
6660
76E0
3FC0
1F80
0600
0600
0600
0000
0000
0000
ENDCHAR

STARTCHAR afii10087
ENCODING 229
SWIDTH 361 0
DWIDTH 12 0
BBX 12 30 0 -6
BITMAP
0000
0000
0000
0000
0000
0000
0000
0000
0000
0000
0000
0000
70E0
30C0
1980
1980
0F00
0600
0600
0F00
1980
1980
30C0
70E0
0000
0000
0000
0000
0000
0000
ENDCHAR

STARTCHAR afii10088
ENCODING 230
SWIDTH 361 0
DWIDTH 12 0
BBX 12 30 0 -6
BITMAP
0000
0000
0000
0000
0000
0000
0000
0000
0000
0000
0000
0000
60C0
60C0
60C0
60C0
60C0
60C0
60C0
60C0
60C0
60C0
7FF0
7FF0
0030
0030
0030
0000
0000
0000
ENDCHAR

STARTCHAR afii10089
ENCODING 231
SWIDTH 361 0
DWIDTH 12 0
BBX 12 30 0 -6
BITMAP
0000
0000
0000
0000
0000
0000
0000
0000
0000
0000
0000
0000
30C0
30C0
30C0
30C0
30C0
39C0
1FC0
0EC0
00C0
00C0
00C0
00C0
0000
0000
0000
0000
0000
0000
ENDCHAR

STARTCHAR afii10090
ENCODING 232
SWIDTH 361 0
DWIDTH 12 0
BBX 12 30 0 -6
BITMAP
0000
0000
0000
0000
0000
0000
0000
0000
0000
0000
0000
0000
6660
6660
6660
6660
6660
6660
6660
6660
6660
6660
7FE0
7FE0
0000
0000
0000
0000
0000
0000
ENDCHAR

STARTCHAR afii10091
ENCODING 233
SWIDTH 361 0
DWIDTH 12 0
BBX 12 30 0 -6
BITMAP
0000
0000
0000
0000
0000
0000
0000
0000
0000
0000
0000
0000
CCC0
CCC0
CCC0
CCC0
CCC0
CCC0
CCC0
CCC0
CCC0
CCC0
FFF0
FFF0
0030
0030
0030
0000
0000
0000
ENDCHAR

STARTCHAR afii10092
ENCODING 234
SWIDTH 361 0
DWIDTH 12 0
BBX 12 30 0 -6
BITMAP
0000
0000
0000
0000
0000
0000
0000
0000
0000
0000
0000
0000
7C00
7C00
0C00
0C00
0C00
0FC0
0FE0
0C70
0C30
0C70
0FE0
0FC0
0000
0000
0000
0000
0000
0000
ENDCHAR

STARTCHAR afii10093
ENCODING 235
SWIDTH 361 0
DWIDTH 12 0
BBX 12 30 0 -6
BITMAP
0000
0000
0000
0000
0000
0000
0000
0000
0000
0000
0000
0000
6060
6060
6060
6060
6060
7C60
7E60
6760
6360
6760
7E60
7C60
0000
0000
0000
0000
0000
0000
ENDCHAR

STARTCHAR afii10094
ENCODING 236
SWIDTH 361 0
DWIDTH 12 0
BBX 12 30 0 -6
BITMAP
0000
0000
0000
0000
0000
0000
0000
0000
0000
0000
0000
0000
3000
3000
3000
3000
3000
3F00
3F80
31C0
30C0
31C0
3F80
3F00
0000
0000
0000
0000
0000
0000
ENDCHAR

STARTCHAR afii10095
ENCODING 237
SWIDTH 361 0
DWIDTH 12 0
BBX 12 30 0 -6
BITMAP
0000
0000
0000
0000
0000
0000
0000
0000
0000
0000
0000
0000
1F80
3FC0
70E0
6060
0060
0FE0
0FE0
0060
6060
70E0
3FC0
1F80
0000
0000
0000
0000
0000
0000
ENDCHAR

STARTCHAR afii10096
ENCODING 238
SWIDTH 361 0
DWIDTH 12 0
BBX 12 30 0 -6
BITMAP
0000
0000
0000
0000
0000
0000
0000
0000
0000
0000
0000
0000
63C0
67E0
6E70
6C30
6C30
7C30
7C30
6C30
6C30
6E70
67E0
63C0
0000
0000
0000
0000
0000
0000
ENDCHAR

STARTCHAR afii10097
ENCODING 239
SWIDTH 361 0
DWIDTH 12 0
BBX 12 30 0 -6
BITMAP
0000
0000
0000
0000
0000
0000
0000
0000
0000
0000
0000
0000
0FC0
1FC0
38C0
30C0
38C0
1FC0
0FC0
0CC0
18C0
18C0
30C0
30C0
0000
0000
0000
0000
0000
0000
ENDCHAR

STARTCHAR afii61352
ENCODING 240
SWIDTH 361 0
DWIDTH 12 0
BBX 12 30 0 -6
BITMAP
0000
0000
0000
0000
0000
0000
0000
0000
C300
C330
E350
E350
F350
F350
D350
DB60
DB00
CB70
CF70
CF00
C700
C700
C300
C300
0000
0000
0000
0000
0000
0000
ENDCHAR

STARTCHAR afii10071
ENCODING 241
SWIDTH 361 0
DWIDTH 12 0
BBX 12 30 0 -6
BITMAP
0000
0000
0000
0000
0000
0000
0000
1980
1980
1980
0000
0000
1F80
3FC0
70E0
6060
7FE0
7FE0
6000
6000
6060
70E0
3FC0
1F80
0000
0000
0000
0000
0000
0000
ENDCHAR

STARTCHAR afii10099
ENCODING 242
SWIDTH 361 0
DWIDTH 12 0
BBX 12 30 0 -6
BITMAP
0000
0000
0000
0000
0000
0000
0000
0000
3000
FE00
FE00
3000
3780
3FC0
38E0
3060
3060
3060
3060
3060
3060
3060
3060
3060
0060
00E0
0FC0
0F80
0000
0000
ENDCHAR

STARTCHAR afii10100
ENCODING 243
SWIDTH 361 0
DWIDTH 12 0
BBX 12 30 0 -6
BITMAP
0000
0000
0000
0000
0000
0000
0000
00C0
0180
0300
0000
0000
3FE0
3FE0
3000
3000
3000
3000
3000
3000
3000
3000
3000
3000
0000
0000
0000
0000
0000
0000
ENDCHAR

STARTCHAR afii10101
ENCODING 244
SWIDTH 361 0
DWIDTH 12 0
BBX 12 30 0 -6
BITMAP
0000
0000
0000
0000
0000
0000
0000
0000
0000
0000
0000
0000
1F80
3FC0
70E0
6060
6000
7E00
7E00
6000
6060
70E0
3FC0
1F80
0000
0000
0000
0000
0000
0000
ENDCHAR

STARTCHAR afii10102
ENCODING 245
SWIDTH 361 0
DWIDTH 12 0
BBX 12 30 0 -6
BITMAP
0000
0000
0000
0000
0000
0000
0000
0000
0000
0000
0000
0000
1F80
3FC0
70E0
6060
7000
3F80
1FC0
00E0
6060
70E0
3FC0
1F80
0000
0000
0000
0000
0000
0000
ENDCHAR

STARTCHAR afii10103
ENCODING 246
SWIDTH 362 0
DWIDTH 12 0
BBX 12 30 0 -6
BITMAP
0000
0000
0000
0000
0000
0000
0000
0000
0600
0600
0600
0000
3E00
3E00
0600
0600
0600
0600
0600
0600
0600
0600
7FE0
7FE0
0000
0000
0000
0000
0000
0000
ENDCHAR

STARTCHAR afii10104
ENCODING 247
SWIDTH 361 0
DWIDTH 12 0
BBX 12 30 0 -6
BITMAP
0000
0000
0000
0000
0000
0000
0000
1980
1980
1980
0000
0000
3E00
3E00
0600
0600
0600
0600
0600
0600
0600
0600
7FE0
7FE0
0000
0000
0000
0000
0000
0000
ENDCHAR

STARTCHAR afii10105
ENCODING 248
SWIDTH 361 0
DWIDTH 12 0
BBX 12 30 0 -6
BITMAP
0000
0000
0000
0000
0000
0000
0000
0000
00C0
00C0
00C0
0000
07C0
07C0
00C0
00C0
00C0
00C0
00C0
00C0
00C0
00C0
00C0
00C0
01C0
1F80
1F00
0000
0000
0000
ENDCHAR

STARTCHAR afii10106
ENCODING 249
SWIDTH 361 0
DWIDTH 12 0
BBX 12 30 0 -6
BITMAP
0000
0000
0000
0000
0000
0000
0000
0000
0000
0000
0000
0000
1F80
1F80
1980
1980
1980
19E0
19F0
19B0
19B0
19B0
79F0
71E0
0000
0000
0000
0000
0000
0000
ENDCHAR

STARTCHAR afii10107
ENCODING 250
SWIDTH 361 0
DWIDTH 12 0
BBX 12 30 0 -6
BITMAP
0000
0000
0000
0000
0000
0000
0000
0000
0000
0000
0000
0000
6600
6600
6600
6600
6600
7FC0
7FE0
6670
6630
6670
67E0
67C0
0000
0000
0000
0000
0000
0000
ENDCHAR

STARTCHAR afii10108
ENCODING 251
SWIDTH 361 0
DWIDTH 12 0
BBX 12 30 0 -6
BITMAP
0000
0000
0000
0000
0000
0000
0000
0000
3000
FE00
FE00
3000
3780
3FC0
38E0
3060
3060
3060
3060
3060
3060
3060
3060
3060
0000
0000
0000
0000
0000
0000
ENDCHAR

STARTCHAR afii10109
ENCODING 252
SWIDTH 361 0
DWIDTH 12 0
BBX 12 30 0 -6
BITMAP
0000
0000
0000
0000
0000
0000
0000
0180
0300
0600
0000
0000
30C0
31C0
3300
3300
3600
3E00
3F00
3300
3180
3180
30C0
30C0
0000
0000
0000
0000
0000
0000
ENDCHAR

STARTCHAR section
ENCODING 253
SWIDTH 361 0
DWIDTH 12 0
BBX 12 30 0 -6
BITMAP
0000
0000
0000
0000
0000
0000
0F00
1F80
39C0
38C0
1C00
0E00
1F00
3380
31C0
38C0
1CC0
0F80
0700
0380
31C0
39C0
1F80
0F00
0000
0000
0000
0000
0000
0000
ENDCHAR

STARTCHAR afii10110
ENCODING 254
SWIDTH 361 0
DWIDTH 12 0
BBX 12 30 0 -6
BITMAP
0000
0000
0000
0000
0000
0000
18C0
18C0
1FC0
0F80
0000
0000
6060
6060
6060
6060
7060
30C0
30C0
18C0
1F80
0F80
0300
0700
0600
6E00
7C00
3800
0000
0000
ENDCHAR

STARTCHAR afii10193
ENCODING 255
SWIDTH 361 0
DWIDTH 12 0
BBX 12 30 0 -6
BITMAP
0000
0000
0000
0000
0000
0000
0000
0000
0000
0000
0000
0000
6060
6060
6060
6060
6060
6060
6060
6060
6060
6060
7FE0
7FE0
0600
0600
0600
0600
0000
0000
ENDCHAR
ENDFONT
